<svg xmlns="http://www.w3.org/2000/svg" width="1024" height="1024">
    <path id="bg" fill="#3CA54D" d="M0 0h1024v1024H0z"/>
    <path id="text" fill="#fff"
          d="M519.8 553H337.2l-1-100.6h153.3c27 0 49.2-3.4 66.4-10.3a80.4 80.4 0 0 0 38.6-30.7 90.2 90.2 0 0 0 13.2-49.8c0-22.2-4.2-40-12.7-53.7a69.8 69.8 0 0 0-38.6-29.8 201.7 201.7 0 0 0-66.9-9.3H388V865H241.5V154h248c41.4 0 78.3 4 110.9 11.8a241.6 241.6 0 0 1 83.5 35.6c22.7 16 40.2 36.2 52.2 60.6 12 24 18 52.7 18 86a168 168 0 0 1-20 81 147.9 147.9 0 0 1-62 60.5c-28 15.6-64.6 24.3-109.8 25.9L519.8 553Zm-6.4 312H297.1l57.2-114.3h159.1c25.8 0 46.8-4 63-12.2a83.7 83.7 0 0 0 36.2-34.1 101.3 101.3 0 0 0 11.7-49.4c0-20.8-3.6-38.9-10.8-54.2a72.5 72.5 0 0 0-33.2-35.1C565 557.2 545 553 519.8 553H378.7l1-100.6h175.7l33.7 39.6c43.3-.7 78.2 7 104.5 22.9 26.7 15.6 46 36 58.1 61 12.4 25.1 18.6 52 18.6 80.6 0 45.6-10 84-29.8 115.2-19.9 31-49 54.2-87.4 69.9-38 15.6-84.6 23.4-139.7 23.4Z"/>
</svg>